<svg width="32" height="28" viewBox="0 0 32 28" fill="none" xmlns="http://www.w3.org/2000/svg">
<path d="M14.8 7.875C14.8 11.0737 12.4411 13.6 9.6 13.6C6.7589 13.6 4.4 11.0737 4.4 7.875C4.4 4.67626 6.7589 2.15 9.6 2.15C12.4411 2.15 14.8 4.67626 14.8 7.875ZM9.6 17.025C10.8676 17.025 12.0553 16.6957 13.1225 16.15H13.44C16.3661 16.15 18.8 18.7583 18.8 22.05V23.625C18.8 24.8878 17.8711 25.85 16.8 25.85H2.4C1.3289 25.85 0.4 24.8878 0.4 23.625V22.05C0.4 18.7583 2.8339 16.15 5.76 16.15H6.07785C7.14884 16.6954 8.33182 17.025 9.6 17.025ZM28.4 8.75C28.4 11.462 26.3961 13.6 24 13.6C21.6039 13.6 19.6 11.462 19.6 8.75C19.6 6.03798 21.6039 3.9 24 3.9C26.3961 3.9 28.4 6.03798 28.4 8.75ZM24 16.5875C24.8141 16.5875 25.5748 16.4105 26.2822 16.15H26.4C29.2411 16.15 31.6 18.6763 31.6 21.875C31.6 23.1378 30.6711 24.1 29.6 24.1H21.2V22.05C21.2 20.0184 20.5226 18.1638 19.4186 16.7058C20.0885 16.3552 20.8214 16.15 21.6 16.15H21.7178C22.4252 16.4105 23.1859 16.5875 24 16.5875Z" fill="#F8F8F8" stroke="black" stroke-width="0.8"/>
</svg>
