<svg width="29" height="29" viewBox="0 0 29 29" fill="none" xmlns="http://www.w3.org/2000/svg">
<path d="M5.8375 14.5L5.8375 14.4999C5.83741 14.2334 5.8631 13.9681 5.91391 13.7076C7.99111 15.5555 11.0767 16.7125 14.5 16.7125C17.9229 16.7125 21.0082 15.5558 23.0854 13.7082C23.1355 13.9665 23.1612 14.2306 23.1625 14.501C23.1621 16.086 22.2445 17.5619 20.6785 18.658C19.1134 19.7535 16.9301 20.4438 14.5 20.4438C12.0699 20.4438 9.88657 19.7535 8.32151 18.658C6.75517 17.5616 5.8375 16.0854 5.8375 14.5ZM5.8375 20.8438L5.8375 20.8436C5.83741 20.5772 5.8631 20.3119 5.91391 20.0514C7.99111 21.8993 11.0767 23.0562 14.5 23.0562C17.9229 23.0562 21.0082 21.8995 23.0854 20.052C23.1355 20.3102 23.1612 20.5744 23.1625 20.8447C23.1621 22.4297 22.2445 23.9056 20.6785 25.0018C19.1134 26.0972 16.9301 26.7875 14.5 26.7875C12.0699 26.7875 9.88657 26.0972 8.32151 25.0018C6.75517 23.9054 5.8375 22.4292 5.8375 20.8438ZM23.1625 8.15625C23.1625 9.74165 22.2448 11.2179 20.6785 12.3143C19.1134 13.4097 16.9301 14.1 14.5 14.1C12.0699 14.1 9.88657 13.4097 8.32151 12.3143C6.75517 11.2179 5.8375 9.74165 5.8375 8.15625C5.8375 6.57085 6.75517 5.09461 8.32151 3.99824C9.88657 2.90276 12.0699 2.2125 14.5 2.2125C16.9301 2.2125 19.1134 2.90276 20.6785 3.99824C22.2448 5.09461 23.1625 6.57085 23.1625 8.15625Z" fill="#F8F8F8" stroke="black" stroke-width="0.8"/>
</svg>
