<svg width="29" height="29" viewBox="0 0 29 29" fill="none" xmlns="http://www.w3.org/2000/svg">
<path d="M18.9975 22.3677C18.4219 22.3677 17.8291 22.6134 17.4219 23.0205C17.0148 23.4277 16.7691 24.0205 16.7691 24.5962C16.7691 25.1719 17.0148 25.7647 17.422 26.1719C17.8291 26.579 18.422 26.8246 18.9976 26.8246C19.5733 26.8246 20.1661 26.579 20.5733 26.1718C20.5733 26.1718 20.5733 26.1718 20.5733 26.1718M18.9975 22.3677L20.5733 26.1718M18.9975 22.3677L18.9975 22.3677C19.5731 22.3677 20.166 22.6134 20.5733 23.0205M18.9975 22.3677L20.5733 23.0205M20.5733 26.1718C20.9803 25.7648 21.226 25.1719 21.226 24.5962C21.226 24.0205 20.9805 23.4277 20.5733 23.0205M20.5733 26.1718L20.5733 23.0205M20.5733 23.0205C20.5733 23.0205 20.5733 23.0205 20.5733 23.0205M20.5733 23.0205L20.5733 23.0205M23.3798 7.64705C23.3978 7.68343 23.4158 7.71983 23.4338 7.75624H13.7017C13.7775 7.74658 13.8522 7.7267 13.9236 7.69679L13.9244 7.69643C14.9808 7.25089 15.9809 6.51379 16.9147 5.82558C17.1684 5.63858 17.4172 5.45521 17.6609 5.28226C18.7441 4.51366 19.7236 3.9571 20.6229 3.85663C21.3528 4.34497 21.9059 5.0166 22.3818 5.7816C22.7532 6.37866 23.0651 7.00996 23.3798 7.64705ZM13.4004 7.74084C13.4288 7.74745 13.4574 7.75258 13.4861 7.75624H6.54706C6.67139 7.58106 6.79869 7.4169 6.93104 7.26604C7.53058 6.58293 8.18635 6.14958 9.14199 6.06063L9.14206 6.06062C10.9904 5.88828 12.1778 6.57907 12.9499 7.46956L12.9505 7.47018C13.0683 7.60545 13.2257 7.70016 13.4004 7.74084ZM3.82595 12.8609H24.325L22.3376 22.3528C22.1936 22.1375 22.0284 21.9353 21.8434 21.7503C21.0929 20.9999 20.0591 20.5711 18.9975 20.5711C17.936 20.5711 16.9022 20.9999 16.1517 21.7503C15.8897 22.0122 15.6675 22.3087 15.489 22.6279H13.5433C13.3624 22.2986 13.1358 21.996 12.8698 21.7294L12.8695 21.729C12.1196 20.9792 11.0729 20.5411 9.99175 20.5411C8.91083 20.5411 7.86236 20.9791 7.11233 21.7291L7.11209 21.7293C6.84595 21.9959 6.61921 22.2985 6.43831 22.628H6.40923L3.82595 12.8609ZM25.4281 11.1547H2.66563V9.46249H25.4281V11.1547ZM24.4664 20.5074H25.4281V21.35H24.2902L24.4664 20.5074ZM8.44793 22.9391C8.85566 22.5313 9.43579 22.2952 9.99175 22.2952C10.5474 22.2952 11.1259 22.5311 11.5339 22.9391C11.9419 23.3472 12.1972 23.9526 12.1972 24.5449C12.1972 25.1371 11.9419 25.7425 11.5338 26.1506C11.1258 26.5586 10.5474 26.7946 9.99175 26.7946C9.4358 26.7946 8.8557 26.5584 8.44796 26.1507C8.04026 25.7429 7.78628 25.1377 7.78628 24.5449C7.78628 23.9519 8.04027 23.3467 8.44793 22.9391Z" fill="#F8F8F8" stroke="black" stroke-width="0.8"/>
</svg>
