<svg width="28" height="28" viewBox="0 0 28 28" fill="none" xmlns="http://www.w3.org/2000/svg">
<g clip-path="url(#clip0_1_61)">
<path fill-rule="evenodd" clip-rule="evenodd" d="M14.0228 3.5C11.3878 3.5 8.98743 4.37033 7.56701 5.08142C7.43868 5.14558 7.3189 5.20819 7.20768 5.26925C6.98718 5.38942 6.79934 5.50142 6.65001 5.6L8.26584 7.97883L9.02651 8.28158C11.9992 9.78133 15.9857 9.78133 18.9589 8.28158L19.8223 7.83358L21.35 5.6C21.0332 5.39415 20.7042 5.20772 20.3648 5.04175C18.9513 4.33825 16.6081 3.5 14.0233 3.5M10.2655 6.19267C9.69346 6.08501 9.12836 5.9432 8.57326 5.768C9.90384 5.17708 11.8866 4.55 14.0233 4.55C15.5033 4.55 16.9027 4.851 18.06 5.2325C16.7038 5.42325 15.2565 5.747 13.8775 6.14542C12.7925 6.45925 11.5243 6.42542 10.2655 6.19267ZM19.5755 9.14667L19.432 9.219C16.1618 10.8687 11.8242 10.8687 8.55401 9.219L8.41809 9.15017C3.50468 14.5407 -0.246157 24.4983 14.0228 24.4983C28.2917 24.4983 24.4498 14.3558 19.5755 9.14667ZM13.4167 14C13.1073 14 12.8105 14.1229 12.5917 14.3417C12.3729 14.5605 12.25 14.8572 12.25 15.1667C12.25 15.4761 12.3729 15.7728 12.5917 15.9916C12.8105 16.2104 13.1073 16.3333 13.4167 16.3333V14ZM14.5833 12.8333V12.25H13.4167V12.8333C12.7978 12.8333 12.2043 13.0792 11.7668 13.5168C11.3292 13.9543 11.0833 14.5478 11.0833 15.1667C11.0833 15.7855 11.3292 16.379 11.7668 16.8166C12.2043 17.2542 12.7978 17.5 13.4167 17.5V19.8333C12.9092 19.8333 12.4769 19.5096 12.3159 19.0557C12.292 18.9815 12.2535 18.9128 12.2026 18.8537C12.1517 18.7946 12.0895 18.7463 12.0196 18.7117C11.9497 18.6771 11.8736 18.6568 11.7957 18.6521C11.7178 18.6474 11.6398 18.6584 11.5663 18.6844C11.4928 18.7104 11.4252 18.7508 11.3675 18.8034C11.3099 18.856 11.2634 18.9195 11.2308 18.9904C11.1982 19.0612 11.1801 19.1379 11.1776 19.2159C11.1751 19.2938 11.1883 19.3715 11.2163 19.4442C11.3772 19.8993 11.6752 20.2932 12.0692 20.5719C12.4633 20.8505 12.9341 21.0001 13.4167 21V21.5833H14.5833V21C15.2022 21 15.7957 20.7542 16.2333 20.3166C16.6708 19.879 16.9167 19.2855 16.9167 18.6667C16.9167 18.0478 16.6708 17.4543 16.2333 17.0168C15.7957 16.5792 15.2022 16.3333 14.5833 16.3333V14C15.0908 14 15.5231 14.3237 15.6841 14.7776C15.708 14.8518 15.7465 14.9205 15.7974 14.9796C15.8483 15.0387 15.9106 15.087 15.9804 15.1216C16.0503 15.1563 16.1265 15.1765 16.2043 15.1812C16.2822 15.1859 16.3602 15.1749 16.4337 15.1489C16.5073 15.123 16.5749 15.0825 16.6325 15.0299C16.6901 14.9774 16.7366 14.9138 16.7692 14.843C16.8019 14.7721 16.82 14.6954 16.8224 14.6175C16.8249 14.5395 16.8117 14.4619 16.7837 14.3891C16.6228 13.9341 16.3249 13.5401 15.9308 13.2615C15.5367 12.9828 15.066 12.8333 14.5833 12.8333ZM14.5833 17.5V19.8333C14.8928 19.8333 15.1895 19.7104 15.4083 19.4916C15.6271 19.2728 15.75 18.9761 15.75 18.6667C15.75 18.3572 15.6271 18.0605 15.4083 17.8417C15.1895 17.6229 14.8928 17.5 14.5833 17.5Z" fill="black"/>
</g>
<defs>
<clipPath id="clip0_1_61">
<rect width="28" height="28" fill="white"/>
</clipPath>
</defs>
</svg>
