<svg width="39" height="39" viewBox="0 0 39 39" fill="none" xmlns="http://www.w3.org/2000/svg">
<rect x="0.75" y="0.75" width="37.5" height="37.5" rx="7.25" fill="#E0CF9D" stroke="#797673" stroke-width="1.5"/>
<path fill-rule="evenodd" clip-rule="evenodd" d="M20.707 9.29303C20.5195 9.10556 20.2652 9.00024 20 9.00024C19.7348 9.00024 19.4805 9.10556 19.293 9.29303L12.293 16.293L10.293 18.293C10.1975 18.3853 10.1213 18.4956 10.0689 18.6176C10.0165 18.7396 9.98889 18.8709 9.98774 19.0036C9.98659 19.1364 10.0119 19.2681 10.0622 19.391C10.1124 19.5139 10.1867 19.6255 10.2806 19.7194C10.3745 19.8133 10.4861 19.8876 10.609 19.9379C10.7319 19.9881 10.8636 20.0134 10.9964 20.0123C11.1292 20.0111 11.2604 19.9835 11.3824 19.9311C11.5044 19.8787 11.6147 19.8025 11.707 19.707L12 19.414V26C12 26.7957 12.3161 27.5587 12.8787 28.1214C13.4413 28.684 14.2043 29 15 29H25C25.7956 29 26.5587 28.684 27.1213 28.1214C27.6839 27.5587 28 26.7957 28 26V19.414L28.293 19.707C28.4816 19.8892 28.7342 19.99 28.9964 19.9877C29.2586 19.9854 29.5094 19.8803 29.6948 19.6948C29.8802 19.5094 29.9854 19.2586 29.9877 18.9964C29.9899 18.7342 29.8891 18.4816 29.707 18.293L20.707 9.29303Z" fill="black"/>
</svg>
