<svg width="22" height="22" viewBox="0 0 22 22" fill="none" xmlns="http://www.w3.org/2000/svg">
<path fill-rule="evenodd" clip-rule="evenodd" d="M7.56296 6.7037C7.56296 5.79214 7.92507 4.91792 8.56964 4.27335C9.21421 3.62878 10.0884 3.26666 11 3.26666C11.9116 3.26666 12.7858 3.62878 13.4303 4.27335C14.0749 4.91792 14.437 5.79214 14.437 6.7037C14.437 7.61526 14.0749 8.48948 13.4303 9.13405C12.7858 9.77862 11.9116 10.1407 11 10.1407C10.0884 10.1407 9.21421 9.77862 8.56964 9.13405C7.92507 8.48948 7.56296 7.61526 7.56296 6.7037ZM7.56296 11.8593C6.42351 11.8593 5.33073 12.3119 4.52502 13.1176C3.71931 13.9233 3.26666 15.0161 3.26666 16.1556C3.26666 16.8392 3.53825 17.4949 4.02168 17.9783C4.5051 18.4617 5.16077 18.7333 5.84444 18.7333H16.1556C16.8392 18.7333 17.4949 18.4617 17.9783 17.9783C18.4617 17.4949 18.7333 16.8392 18.7333 16.1556C18.7333 15.0161 18.2807 13.9233 17.475 13.1176C16.6693 12.3119 15.5765 11.8593 14.437 11.8593H7.56296Z" fill="black"/>
</svg>
