<svg width="45" height="45" viewBox="0 0 45 45" fill="none" xmlns="http://www.w3.org/2000/svg">
<rect x="0.75" y="0.75" width="43.5" height="43.5" rx="7.25" fill="#E0CF9D" stroke="#797673" stroke-width="1.5"/>
<path d="M22.5 28.5416C23.141 28.5416 23.7557 28.287 24.2089 27.8338C24.6621 27.3806 24.9167 26.7659 24.9167 26.125C24.9167 25.484 24.6621 24.8694 24.2089 24.4161C23.7557 23.9629 23.141 23.7083 22.5 23.7083C21.8591 23.7083 21.2444 23.9629 20.7912 24.4161C20.338 24.8694 20.0834 25.484 20.0834 26.125C20.0834 26.7659 20.338 27.3806 20.7912 27.8338C21.2444 28.287 21.8591 28.5416 22.5 28.5416ZM29.75 17.6666C30.391 17.6666 31.0057 17.9213 31.4589 18.3745C31.9121 18.8277 32.1667 19.4424 32.1667 20.0833V32.1666C32.1667 32.8076 31.9121 33.4223 31.4589 33.8755C31.0057 34.3287 30.391 34.5833 29.75 34.5833H15.25C14.6091 34.5833 13.9944 34.3287 13.5412 33.8755C13.088 33.4223 12.8334 32.8076 12.8334 32.1666V20.0833C12.8334 19.4424 13.088 18.8277 13.5412 18.3745C13.9944 17.9213 14.6091 17.6666 15.25 17.6666H16.4584V15.25C16.4584 13.6476 17.0949 12.1109 18.2279 10.9779C19.361 9.84484 20.8977 9.20831 22.5 9.20831C23.2934 9.20831 24.0791 9.36459 24.8121 9.66821C25.5451 9.97183 26.2111 10.4169 26.7721 10.9779C27.3332 11.5389 27.7782 12.2049 28.0818 12.9379C28.3854 13.6709 28.5417 14.4566 28.5417 15.25V17.6666H29.75ZM22.5 11.625C21.5386 11.625 20.6166 12.0069 19.9368 12.6867C19.257 13.3665 18.875 14.2886 18.875 15.25V17.6666H26.125V15.25C26.125 14.2886 25.7431 13.3665 25.0633 12.6867C24.3835 12.0069 23.4615 11.625 22.5 11.625Z" fill="black"/>
</svg>
