<svg width="23" height="23" viewBox="0 0 23 23" fill="none" xmlns="http://www.w3.org/2000/svg">
<g clip-path="url(#clip0_1_71)">
<path d="M8.20403 2.69479L8.20415 2.69452C8.27922 2.52538 8.44608 2.41669 8.63168 2.41669H16.2763C16.6234 2.41669 16.8502 2.78268 16.6945 3.09416L14.52 7.44308L14.1582 8.16669H14.9672H18.1853C18.6019 8.16669 18.8108 8.6705 18.516 8.9653L7.06104 20.4203C6.71049 20.7708 6.13046 20.409 6.28647 19.9424L6.28661 19.942L8.72844 12.6165L8.94781 11.9584H8.2541H4.80604C4.80603 11.9584 4.80602 11.9584 4.80601 11.9584C4.72807 11.9583 4.65136 11.9389 4.58286 11.9017C4.51435 11.8645 4.45621 11.8108 4.41373 11.7454L3.99451 12.0179L4.41373 11.7454C4.37125 11.6801 4.34577 11.6052 4.3396 11.5274C4.33344 11.4498 4.34676 11.3718 4.37836 11.3006C4.37838 11.3006 4.3784 11.3005 4.37842 11.3005L8.20403 2.69479Z" fill="white" stroke="black"/>
</g>
<defs>
<clipPath id="clip0_1_71">
<rect width="23" height="23" fill="white"/>
</clipPath>
</defs>
</svg>
